<svg width="2000" height="1400" xmlns="http://www.w3.org/2000/svg"><defs><linearGradient id="a" gradientTransform="rotate(90)"><stop offset="5%" stop-color="#acaaf7"/><stop offset="95%" stop-color="#c0bff9"/></linearGradient><linearGradient id="b" gradientTransform="rotate(90)"><stop offset="5%" stop-color="#d1ccff"/><stop offset="95%" stop-color="#dcd8ff"/></linearGradient><linearGradient id="c" gradientTransform="rotate(90)"><stop offset="5%" stop-color="#696680"/><stop offset="95%" stop-color="#8e8c9f"/></linearGradient><linearGradient id="d" gradientTransform="rotate(90)"><stop offset="5%"/><stop offset="95%" stop-color="#3f3f3f"/></linearGradient></defs><path fill="#8788ee" d="M0 0h2000v1400H0z"/><path d="M0 280c123.253 11.923 246.505 23.846 352 27s193.231-2.461 307-14 253.57-29 364-21 191.486 41.464 295 48c103.514 6.536 229.484-13.856 359-35s262.576-43.041 317-44c54.424-.959 30.212 19.02 46 39l-40 1120H0Z" fill="url(#a)"/><path d="M0 560c106.85 20.474 213.702 40.948 331 33s245.044-44.318 357-63c111.956-18.682 208.12-19.674 316-5s227.473 45.016 330 50c102.527 4.984 187.988-15.389 316-27s298.575-14.46 364-11c65.425 3.46 25.713 13.23 26 23l-40 840H0Z" fill="url(#b)"/><path d="M0 840c120.208-13.296 240.415-26.592 348-26 107.585.592 202.546 15.07 310 26 107.454 10.93 227.4 18.31 337 8 109.6-10.31 208.851-38.31 320-32 111.149 6.31 234.194 46.93 359 44 124.806-2.93 251.373-49.408 306-60 54.627-10.592 37.313 14.704 60 40l-40 560H0Z" fill="url(#c)"/><path d="M0 1120c123.685-1.817 247.37-3.633 352-2s190.206 6.716 298 20c107.794 13.284 237.807 34.77 355 17 117.193-17.77 221.567-74.794 325-77 103.433-2.206 205.924 50.406 330 60 124.076 9.594 269.736-23.83 330-34 60.264-10.17 35.132 2.915 50 16l-40 280H0Z" fill="url(#d)"/></svg>